<?xml version="1.0" encoding="iso-8859-1"?>
<!-- Generator: Adobe Illustrator 19.0.0, SVG Export Plug-In . SVG Version: 6.00 Build 0)  -->
<svg version="1.1" id="Capa_1" xmlns="http://www.w3.org/2000/svg" xmlns:xlink="http://www.w3.org/1999/xlink" x="0px" y="0px"
	 viewBox="0 0 511.784 511.784" style="enable-background:new 0 0 511.784 511.784;" xml:space="preserve">
<g>
	<g>
		<path d="M459.67,196.968l-176-192c-6.048-6.624-17.504-6.624-23.552,0l-176,192c-4.32,4.672-5.408,11.456-2.88,17.248
			c2.56,5.824,8.32,9.568,14.656,9.568h80v87.36c0,36.96-11.2,72.64-32.352,103.2c-21.12,30.464-50.624,53.44-85.28,66.464
			c-7.264,2.72-11.488,10.24-10.112,17.856c1.376,7.616,8,13.12,15.744,13.12h90.88c117.536,0,213.12-95.616,213.12-213.12v-74.88
			h80c6.336,0,12.096-3.744,14.656-9.568C465.078,208.424,463.99,201.64,459.67,196.968z M351.894,191.784c-8.832,0-16,7.168-16,16
			v90.88c0,99.872-81.248,181.12-181.12,181.12h-29.632c17.088-13.248,32.16-29.088,44.704-47.2
			c24.896-35.968,38.048-77.952,38.048-121.44v-103.36c0-8.832-7.168-16-16-16h-59.616l139.616-152.32l139.616,152.32H351.894z"/>
	</g>
</g>
<g>
</g>
<g>
</g>
<g>
</g>
<g>
</g>
<g>
</g>
<g>
</g>
<g>
</g>
<g>
</g>
<g>
</g>
<g>
</g>
<g>
</g>
<g>
</g>
<g>
</g>
<g>
</g>
<g>
</g>
</svg>
